<svg width="24" height="13" viewBox="0 0 24 13" fill="none" xmlns="http://www.w3.org/2000/svg">
<path d="M1.33203 6.66659L0.695635 6.03019L0.059239 6.66659L0.695635 7.30298L1.33203 6.66659ZM21.7654 9.33325C21.7654 9.83031 22.1683 10.2333 22.6654 10.2333C23.1624 10.2333 23.5654 9.83031 23.5654 9.33325H21.7654ZM6.02897 0.696856L0.695635 6.03019L1.96843 7.30298L7.30176 1.96965L6.02897 0.696856ZM0.695635 7.30298L6.02897 12.6363L7.30176 11.3635L1.96843 6.03019L0.695635 7.30298ZM1.33203 7.56659H20.6654V5.76659H1.33203V7.56659ZM21.7654 8.66658V9.33325H23.5654V8.66658H21.7654ZM20.6654 7.56659C21.2729 7.56659 21.7654 8.05907 21.7654 8.66658H23.5654C23.5654 7.06496 22.267 5.76659 20.6654 5.76659V7.56659Z" fill="#7DBD42"/>
</svg>
