<svg width="25" height="13" viewBox="0 0 25 13" fill="none" xmlns="http://www.w3.org/2000/svg">
<path d="M23.668 6.33333L24.3044 5.69694L24.9408 6.33333L24.3044 6.96973L23.668 6.33333ZM3.0013 6.33333L3.0013 5.43333L3.0013 6.33333ZM0.101303 3.66667C0.101303 3.16961 0.504246 2.76667 1.0013 2.76667C1.49836 2.76667 1.9013 3.16961 1.9013 3.66667L0.101303 3.66667ZM18.971 0.363604L24.3044 5.69694L23.0316 6.96973L17.6982 1.6364L18.971 0.363604ZM24.3044 6.96973L18.971 12.3031L17.6982 11.0303L23.0316 5.69694L24.3044 6.96973ZM23.668 7.23333L3.0013 7.23333L3.0013 5.43333L23.668 5.43333L23.668 7.23333ZM0.101303 4.33333L0.101303 3.66667L1.9013 3.66667L1.9013 4.33333L0.101303 4.33333ZM3.0013 7.23333C1.39968 7.23333 0.101304 5.93496 0.101303 4.33333L1.9013 4.33333C1.9013 4.94085 2.39379 5.43333 3.0013 5.43333L3.0013 7.23333Z" fill="#7DBD42"/>
</svg>
