<svg width="32" height="32" viewBox="0 0 32 32" fill="none" xmlns="http://www.w3.org/2000/svg">
<path d="M8.49231 12.1231V13.8462H8.12308C7.44615 12.6154 6.15385 11.877 4.67692 11.877C2.27692 11.877 0 14.1539 0 17.1077C0 20.0616 2.21538 22.277 4.67692 22.277C6.15385 22.277 7.44615 21.5385 8.12308 20.3077H8.49231V22.0308H10.6462V12.1231H8.49231ZM5.29231 20.2462C3.56923 20.2462 2.15385 18.8923 2.15385 17.0462C2.15385 15.2616 3.50769 13.8462 5.29231 13.8462C7.01539 13.8462 8.49231 15.2 8.49231 17.0462C8.49231 18.8923 7.07692 20.2462 5.29231 20.2462Z" fill="#FF5000"/>
<path d="M19.6303 15.7538H15.8765V14.1538H22.215V12.1846H13.7227V22.0923H19.6303C21.6611 22.0923 23.015 20.7384 23.015 18.8923C23.015 17.1076 21.5996 15.7538 19.6303 15.7538ZM19.3842 20.123H15.8765V17.6615H19.3842C20.3688 17.6615 20.8611 18.1538 20.8611 18.8923C20.8611 19.6307 20.3688 20.123 19.3842 20.123Z" fill="#FF5000"/>
<path d="M28.3075 16.1846C30.3383 16.1846 31.9999 14.5231 31.9999 12.4923C31.9999 10.4615 30.3383 8.79999 28.3075 8.79999C26.2768 8.79999 24.6152 10.4615 24.6152 12.4923C24.6152 14.5231 26.2768 16.1846 28.3075 16.1846Z" fill="#00F500"/>
</svg>
