<svg width="32" height="32" viewBox="0 0 32 32" fill="none" xmlns="http://www.w3.org/2000/svg">
<path d="M23.6778 14.3355L31.7852 0.322148C31.8926 0.161074 31.7852 0 31.6242 0H26.4698C25.2349 0 24.2148 0.590604 23.6242 1.61074L14.9262 16.6443C14.8725 16.7517 14.9262 16.9127 15.0335 16.9665C19.0604 18.4161 22.3355 21.4766 24.1074 25.2886C24.161 25.4497 24.0538 25.6107 23.8926 25.6107H6.60402C6.49665 25.6107 6.38926 25.5034 6.38926 25.3959V6.60402C6.38926 6.49665 6.49665 6.38926 6.60402 6.38926H15.302C16.4295 6.38926 17.5034 5.79866 18.094 4.77852L20.6711 0.322148C20.7785 0.161074 20.6711 0 20.5101 0H0.214766C0.107382 0 0 0.107382 0 0.214766V31.7852C0 31.8926 0.107382 32 0.214766 32H31.7852C31.8926 32 32 31.8926 32 31.7852C31.9463 24.8591 28.7248 18.6846 23.7316 14.6041C23.6242 14.5503 23.6242 14.443 23.6778 14.3355Z" fill="#8DC63F"/>
</svg>
