<svg width="32" height="32" viewBox="0 0 32 32" fill="none" xmlns="http://www.w3.org/2000/svg">
<path d="M19.1848 3.37027V0.800049L17.5946 2.22245L16.3911 0.800049L15.1856 2.22245L13.6062 0.800049V3.38523C14.5375 3.19134 15.4838 3.0893 16.437 3.0893C17.3561 3.0893 18.279 3.1859 19.1848 3.37027ZM16.3398 4.45187L16.9774 5.10742L16.3398 5.768L15.703 5.10742L16.3398 4.45187ZM31.9402 16.2096L32 15.8579H31.0538C30.6198 15.8579 30.4166 16.0135 30.3535 16.458C30.2909 16.9106 30.1957 17.4355 30.0588 18.188C29.9299 18.8928 29.5431 18.9451 28.905 18.9468C29.1987 14.359 26.589 10.172 22.5115 8.06637C22.053 7.82963 21.6183 7.64675 21.0778 7.44415L21.0368 7.56552C21.5188 7.78186 22.007 8.02245 22.4651 8.30989C26.229 10.6896 28.0574 14.902 27.3101 18.9468C26.5962 18.9474 26.1694 18.9382 26.0324 18.188C25.8949 17.4355 25.8011 16.9106 25.7362 16.458C25.6747 16.0135 25.4722 15.8579 25.0382 15.8579H24.0896L24.1508 16.2096H24.7631C24.7736 16.2776 24.7876 16.3538 24.8012 16.4368L24.1906 16.436L24.2522 16.7889H24.8583C24.8703 16.8624 24.8846 16.938 24.8974 17.0149H24.2919L24.3527 17.3662H24.9547C25.0567 17.9636 25.1606 18.5644 25.2134 18.8099C25.3203 19.3351 25.5295 20.117 26.9993 20.1664C26.999 20.1676 26.999 20.17 26.999 20.1708C26.7418 20.9769 26.3842 21.7712 25.9037 22.5329C23.0175 27.0905 16.9383 28.3691 12.4013 25.4488C10.489 24.2176 9.17984 22.3092 8.62416 20.1913C8.62232 20.1823 8.6212 20.1737 8.61736 20.1664C10.0475 20.1019 10.2522 19.3312 10.3602 18.8099C10.4116 18.5644 10.5158 17.9636 10.6171 17.3675L11.2194 17.3662L11.281 17.0149H10.675C10.6894 16.938 10.7009 16.8623 10.7141 16.7889H11.3196L11.3822 16.436H10.7722C10.7854 16.3537 10.7978 16.2776 10.8094 16.2096H11.4226L11.4821 15.8579H10.5339C10.1003 15.8579 9.8968 16.0135 9.83528 16.458C9.77064 16.9106 9.67784 17.4355 9.54056 18.188C9.41088 18.8911 9.02624 18.9451 8.3888 18.9468C8.16512 17.0029 8.56632 14.9708 9.72848 13.1709C11.8927 9.97421 15.7816 8.88277 19.1549 9.90853L16.3683 7.00304L19.1558 4.14219C16.9479 3.66692 14.755 3.78135 12.7294 4.37078C10.7674 4.97993 8.9728 6.08176 7.65937 7.68417C4.80926 10.7816 3.84472 15.7659 5.03254 19.84C6.142 23.9186 9.50328 27.3731 13.6769 28.3552C15.588 28.8437 17.621 28.8147 19.5349 28.3243L19.5634 28.4384C17.6395 28.9654 15.5814 29.032 13.6261 28.5685C9.36016 27.6417 5.78143 24.2684 4.56163 20.0648C3.52838 16.7386 3.79873 12.9432 5.42522 9.86053L5.30413 9.78133C4.47224 11.015 3.84472 12.3967 3.48116 13.8871C3.07558 15.5421 2.98904 17.2593 3.22618 18.9468C2.51008 18.9487 2.07944 18.9409 1.94216 18.188C1.80433 17.4355 1.71085 16.9106 1.64813 16.458C1.58499 16.0135 1.38226 15.8579 0.948216 15.8579H0L0.0615002 16.2096H0.672829C0.684394 16.2776 0.696368 16.3538 0.711062 16.4368L0.100958 16.436L0.162186 16.7889H0.768345C0.78059 16.8624 0.793517 16.938 0.806984 17.0149H0.20042L0.26192 17.3662H0.866176C0.967544 17.9636 1.07054 18.5644 1.12156 18.8099C1.23409 19.3533 1.44961 20.1708 3.05324 20.1708H3.45558C3.46674 20.2201 3.47844 20.2678 3.49082 20.318C4.66341 25.042 8.37168 28.9644 13.5023 30.1357C20.2642 31.6837 27.0206 27.5736 28.6226 20.8312C28.6753 20.6123 28.7222 20.392 28.7634 20.1708H28.9486C30.55 20.1708 30.7679 19.3533 30.879 18.8099C30.9312 18.5644 31.0341 17.9636 31.1354 17.3675L31.739 17.3662L31.7993 17.0149H31.1954C31.2077 16.938 31.2213 16.8623 31.2329 16.7889H31.8396L31.9019 16.436H31.2902C31.3049 16.3537 31.3177 16.2776 31.329 16.2096H31.9402Z" fill="#FFB400"/>
</svg>
