<svg width="33" height="32" viewBox="0 0 33 32" fill="none" xmlns="http://www.w3.org/2000/svg">
<path d="M10.9604 6.47987C10.9604 2.63987 13.2804 0.0798721 16.1604 -0.000127926C19.0404 -0.0801279 21.5204 2.47987 21.6004 5.67987C21.6004 7.19987 21.2004 8.71987 20.4004 10.0799C19.2804 12.0799 15.6804 15.6799 15.6804 15.6799L14.4004 12.9599C14.4004 12.9599 14.9604 12.1599 15.7604 11.1999C16.7204 10.0799 17.5204 8.71987 18.1604 7.35987C18.4004 6.87987 18.4804 6.31987 18.4804 5.75987C18.4004 4.39987 17.5204 3.35987 16.3204 3.35987C15.2004 3.35987 14.2404 4.47987 14.1604 5.75987C14.0804 6.71987 14.4004 7.67987 14.8804 8.47987C15.1204 8.87987 15.5204 9.59987 15.5204 9.59987L13.5204 11.9999C13.0404 11.4399 12.6404 10.7999 12.2404 10.1599C11.4404 8.79987 10.9604 7.35987 10.9604 6.47987ZM10.1604 10.0799C9.28038 9.19987 8.24038 8.55987 7.04038 8.23987C4.08038 7.43987 0.960379 9.03987 0.160379 11.9199C-0.159621 13.3599 0.000378657 14.8799 0.800379 16.1599C1.60038 17.4399 2.80038 18.3999 4.24038 18.7999C5.60038 19.1999 7.20038 19.1999 8.64038 18.7999C9.20038 18.6399 9.68038 18.4799 10.1604 18.3199L8.64038 15.4399C8.64038 15.4399 8.00038 15.6799 7.52038 15.7599C6.64038 15.9999 5.68038 15.9199 4.80038 15.5199C3.60038 15.0399 2.96038 13.6799 3.36038 12.6399C3.76038 11.5199 5.20038 11.0399 6.32038 11.4399C6.96038 11.7599 7.52038 12.0799 8.00038 12.5599C10.7204 14.8799 11.7604 18.9599 11.7604 18.9599C11.7604 18.9599 8.24038 20.1599 6.96038 20.9599C4.48038 22.6399 3.44038 25.6799 4.40038 28.2399C4.72038 29.1999 5.36038 30.0799 6.24038 30.6399C7.04038 31.2799 8.08038 31.5999 9.12038 31.5999C10.3204 31.5999 11.4404 31.2799 12.4004 30.5599C13.3604 29.9199 14.1604 28.9599 14.5604 27.9199C15.2804 26.2399 15.4404 24.4799 15.4404 22.7199C15.4404 20.3199 14.9604 17.9999 14.0804 15.7599C13.2004 13.7599 11.8404 11.7599 10.1604 10.0799ZM11.4404 27.1199C10.9604 27.9999 10.1604 28.5599 9.12038 28.4799C8.72038 28.4799 8.40038 28.3199 8.08038 28.0799C7.76038 27.8399 7.60038 27.5199 7.44038 27.1999C7.04038 26.1599 7.44038 25.3599 8.08038 24.5599C9.12038 23.1199 12.0804 22.3999 12.0804 22.3999C12.0804 22.3999 12.1604 23.5999 12.1604 23.9999C12.2404 25.0399 11.9204 26.1599 11.4404 27.1199ZM17.6804 26.7999C18.0004 27.9999 18.5604 29.1199 19.3604 30.0799C21.5204 32.3999 24.9604 32.6399 27.1204 30.6399C29.2804 28.5599 29.3604 24.9599 27.2804 22.6399C26.2404 21.5199 24.9604 20.7199 23.5204 20.2399C23.0404 20.0799 22.4804 19.9199 22.0004 19.8399L21.8404 23.1199C21.8404 23.1199 22.4804 23.2799 22.9604 23.4399C23.8404 23.6799 24.6404 24.3199 25.2004 25.1199C26.0004 26.2399 25.8404 27.6799 24.9604 28.3999C24.0004 29.1199 22.5604 28.7999 21.8404 27.7599C21.4404 27.1999 21.2004 26.5599 21.0404 25.9199C19.9204 22.4799 21.1204 18.3999 21.1204 18.3999C21.1204 18.3999 24.7204 19.2799 26.2404 19.1999C29.2004 19.0399 31.6804 17.1199 32.1604 14.3999C32.4004 13.3599 32.2404 12.3199 31.9204 11.3599C31.5204 10.3999 30.8804 9.51987 30.0004 8.95987C29.0404 8.31987 27.8404 7.99987 26.7204 8.07987C25.5204 8.07987 24.4004 8.47987 23.4404 9.19987C22.0004 10.2399 20.9604 11.5999 20.0004 13.1199C18.8004 15.1999 17.9204 17.4399 17.6004 19.7599C16.9604 22.0799 17.0404 24.4799 17.6804 26.7999ZM25.2804 11.6799C25.6804 11.4399 26.1604 11.2799 26.6404 11.2799C27.1204 11.2799 27.6004 11.4399 27.9204 11.7599C28.2404 11.9999 28.4804 12.2399 28.6404 12.6399C28.8004 12.9599 28.8004 13.3599 28.7204 13.7599C28.4804 14.7999 27.7604 15.2799 26.8804 15.6799C25.2804 16.3199 22.4004 15.3599 22.4004 15.3599L23.1204 13.9199C23.6004 12.9599 24.4004 12.2399 25.2804 11.6799Z" fill="#DD1F2A"/>
</svg>
