<svg width="32" height="32" viewBox="0 0 32 32" fill="none" xmlns="http://www.w3.org/2000/svg">
<path d="M12.6038 4.7816C9.95758 4.7816 7.64738 5.53767 5.63121 7.0498C6.13525 6.54576 6.6813 6.08372 7.26935 5.62168C9.83158 3.77351 12.6458 3.14346 15.7541 3.6055C18.8624 4.10954 21.3406 5.62168 23.1888 8.14192C25.0369 10.7042 25.7089 13.5184 25.2049 16.6686C25.1209 17.2987 24.9529 17.9288 24.7849 18.4748C25.7509 17.0887 26.381 15.4506 26.675 13.6444C26.8851 12.3422 26.8851 11.1242 26.717 9.90608C27.5991 11.8802 27.8512 13.9804 27.4731 16.2486C26.9691 19.3569 25.4569 21.8351 22.8947 23.6833C20.5005 25.4054 17.8123 26.1195 14.872 25.7414C14.788 25.2794 14.746 24.8174 14.746 24.3134C14.662 22.4652 14.9981 20.743 15.7121 19.1469L14.494 18.8949C12.6038 21.205 11.7217 23.8513 11.8057 26.8755C11.8057 27.2536 11.8477 27.5896 11.8897 27.9257C10.3777 27.3796 8.9915 26.4975 7.73139 25.2374C5.5052 23.0112 4.4131 20.323 4.4131 17.1727C4.4131 14.0224 5.5472 11.3342 7.73139 9.108C9.95758 6.88179 12.6458 5.7897 15.7961 5.7897C16.4261 5.7897 17.0562 5.8317 17.6443 5.9157C16.1321 5.15964 14.452 4.7816 12.6038 4.7816ZM15.0401 26.5815C15.7961 26.8755 16.5941 27.0856 17.4342 27.2116C20.6685 27.7156 23.5668 27.0436 26.213 25.1114C28.8173 23.1792 30.4134 20.617 30.9174 17.4247C31.4215 14.2324 30.7494 11.2922 28.8593 8.64592C27.7252 7.09181 26.339 5.8737 24.7009 5.07563C24.6589 5.03362 24.6169 4.94962 24.5749 4.90762C22.6847 2.26138 20.1225 0.665242 16.8882 0.161197C13.6539 -0.342847 10.7557 0.329212 8.10942 2.26138C5.75721 3.98354 4.24509 6.20973 3.57302 8.982C1.72486 11.1242 0.800781 13.6444 0.800781 16.5846C0.800781 19.861 1.93488 22.6332 4.24509 24.9434C6.38727 27.0856 8.9495 28.2197 11.9317 28.3877C12.1417 29.6898 12.5198 30.9079 13.1499 32H17.9383C16.4681 30.4458 15.5021 28.6397 15.0401 26.5815Z" fill="#2F9A41"/>
</svg>
