<svg width="32" height="32" viewBox="0 0 32 32" fill="none" xmlns="http://www.w3.org/2000/svg">
<circle cx="16" cy="16" r="16" fill="#CDFB68"/>
<path fill-rule="evenodd" clip-rule="evenodd" d="M4 16.3981C4 9.99804 9.36404 4.80756 15.9834 4.79999V8.99098C11.7561 8.99666 8.33445 12.3112 8.33445 16.3981C8.33445 20.485 11.7658 23.809 16.001 23.809C20.2362 23.809 23.6636 20.5229 23.6636 16.3716L28 16.3754C28 22.8058 22.6301 28 16.001 28C9.37183 28 4 22.8038 4 16.3981ZM10.7048 16.3979C10.7048 13.5566 13.091 11.2529 16.0279 11.2529C18.965 11.2529 21.3531 13.5566 21.3531 16.3979C21.3531 19.2393 18.9669 21.543 16.0279 21.543C13.089 21.543 10.7048 19.2412 10.7048 16.3979ZM22.7699 6.93172C21.0863 6.93172 19.72 8.25111 19.72 9.88094C19.72 11.5089 21.0844 12.832 22.7699 12.832C24.4554 12.832 25.8217 11.5108 25.8217 9.88094C25.8217 8.25111 24.4535 6.93172 22.7699 6.93172Z" fill="#222222"/>
</svg>
