<svg width="32" height="32" viewBox="0 0 32 32" fill="none" xmlns="http://www.w3.org/2000/svg">
<path d="M28.2812 6.21613C29.0311 7.1988 29.6661 8.2664 30.173 9.39747L15.7916 20.1415L9.78125 16.3231V11.7294L15.7916 15.5478L28.2812 6.21613Z" fill="#21A038"/>
<path d="M3.64741 15.9996C3.64741 15.7935 3.65237 15.5887 3.66229 15.3851L0.0198374 15.2042C0.00743972 15.4681 4.40174e-06 15.7345 4.40174e-06 16.0033C-0.00154536 18.1039 0.406151 20.1841 1.19971 22.1246C1.99327 24.0652 3.15707 25.8278 4.62436 27.3114L7.20804 24.6943C6.07858 23.5542 5.18257 22.1992 4.57152 20.707C3.96046 19.2149 3.64642 17.6151 3.64741 15.9996Z" fill="url(#paint0_linear_4043_102)"/>
<path d="M15.7892 3.69595C15.9925 3.69595 16.1945 3.70349 16.3954 3.71354L16.5776 0.0208111C16.3165 0.00824651 16.0536 0.00196499 15.7892 0.00196499C13.7155 -0.000597875 11.6618 0.411989 9.74593 1.21603C7.83005 2.02008 6.08977 3.19975 4.625 4.6873L7.20868 7.30576C8.33364 6.16072 9.67083 5.25233 11.1434 4.63283C12.6159 4.01333 14.1947 3.69493 15.7892 3.69595Z" fill="url(#paint1_linear_4043_102)"/>
<path d="M15.7877 28.3038C15.5844 28.3038 15.3823 28.3038 15.1803 28.2875L14.998 31.979C15.26 31.9924 15.5233 31.9991 15.7877 31.9991C17.8606 32.0013 19.9133 31.5884 21.8281 30.7841C23.743 29.9799 25.4821 28.8 26.9458 27.3125L24.3671 24.6953C23.2419 25.8397 21.9048 26.7476 20.4326 27.3669C18.9603 27.9862 17.3818 28.3046 15.7877 28.3038Z" fill="url(#paint2_linear_4043_102)"/>
<path d="M22.6337 5.84255L25.7034 3.54951C22.8977 1.24701 19.3954 -0.00639151 15.7852 2.45103e-05V3.69526C18.2299 3.69219 20.6178 4.44093 22.6337 5.84255Z" fill="url(#paint3_linear_4043_102)"/>
<path d="M31.5754 16.0001C31.5774 15.0388 31.4944 14.0791 31.3274 13.1328L27.9292 15.6708C27.9292 15.7802 27.9292 15.8895 27.9292 16.0001C27.9301 17.7192 27.5745 19.4194 26.8856 20.9904C26.1965 22.5614 25.1895 23.9681 23.9297 25.1194L26.3808 27.8648C28.0185 26.3664 29.3273 24.5358 30.2222 22.4919C31.1172 20.4479 31.5781 18.2362 31.5754 16.0001Z" fill="#21A038"/>
<path d="M15.7892 28.3043C14.0927 28.3049 12.415 27.9444 10.8647 27.2462C9.31444 26.548 7.92613 25.5275 6.78969 24.251L4.08203 26.7337C5.56041 28.3938 7.36657 29.7204 9.3834 30.6276C11.4002 31.5347 13.5826 32.0021 15.7892 31.9995V28.3043Z" fill="url(#paint4_linear_4043_102)"/>
<path d="M7.64693 6.88007L5.19714 4.1347C3.55887 5.63287 2.24961 7.4633 1.35428 9.50727C0.458958 11.5512 -0.00244096 13.7631 9.71133e-06 15.9994H3.64742C3.64667 14.2803 4.00232 12.5801 4.69129 11.0091C5.38028 9.43821 6.38724 8.03145 7.64693 6.88007Z" fill="url(#paint5_linear_4043_102)"/>
<defs>
<linearGradient id="paint0_linear_4043_102" x1="5.36202" y1="26.8504" x2="1.28124" y2="15.2103" gradientUnits="userSpaceOnUse">
<stop offset="0.14" stop-color="#F1E813"/>
<stop offset="0.3" stop-color="#E6E418"/>
<stop offset="0.58" stop-color="#C9DA26"/>
<stop offset="0.89" stop-color="#A2CC39"/>
</linearGradient>
<linearGradient id="paint1_linear_4043_102" x1="5.6664" y1="5.34066" x2="15.9649" y2="1.46815" gradientUnits="userSpaceOnUse">
<stop offset="0.06" stop-color="#0FA7DF"/>
<stop offset="0.54" stop-color="#0098F8"/>
<stop offset="0.92" stop-color="#0290EA"/>
</linearGradient>
<linearGradient id="paint2_linear_4043_102" x1="14.7576" y1="29.7688" x2="26.3792" y2="27.1783" gradientUnits="userSpaceOnUse">
<stop offset="0.12" stop-color="#A2CC39"/>
<stop offset="0.28" stop-color="#86C239"/>
<stop offset="0.87" stop-color="#219F38"/>
</linearGradient>
<linearGradient id="paint3_linear_4043_102" x1="15.0265" y1="1.23763" x2="24.9724" y2="4.26616" gradientUnits="userSpaceOnUse">
<stop offset="0.06" stop-color="#0290EA"/>
<stop offset="0.79" stop-color="#0C89CA"/>
</linearGradient>
<linearGradient id="paint4_linear_4043_102" x1="4.99698" y1="26.2839" x2="15.833" y2="30.2799" gradientUnits="userSpaceOnUse">
<stop offset="0.13" stop-color="#F1E813"/>
<stop offset="0.3" stop-color="#EAE616"/>
<stop offset="0.53" stop-color="#D8DF1F"/>
<stop offset="0.8" stop-color="#BAD52D"/>
<stop offset="0.98" stop-color="#A2CC39"/>
</linearGradient>
<linearGradient id="paint5_linear_4043_102" x1="1.3588" y1="16.4467" x2="5.79629" y2="5.05648" gradientUnits="userSpaceOnUse">
<stop offset="0.07" stop-color="#A2CC39"/>
<stop offset="0.26" stop-color="#81C45E"/>
<stop offset="0.92" stop-color="#0FA7DF"/>
</linearGradient>
</defs>
</svg>
