<svg width="32" height="32" viewBox="0 0 32 32" fill="none" xmlns="http://www.w3.org/2000/svg">
<path fill-rule="evenodd" clip-rule="evenodd" d="M19.0982 6.63823C18.9431 7.1522 17.8662 10.5298 15.7043 12.5667C13.4607 10.6821 12.188 6.57024 12.188 6.57024L12.1934 6.52945C10.6651 8.86819 9.64801 11.672 9.64801 11.672C9.64801 11.672 11.8453 18.351 15.7124 21.4131C19.4626 18.0818 21.6245 11.5931 21.6245 11.5931C21.6245 11.5931 20.738 9.18093 19.0982 6.63823ZM19.1389 5.18603C19.1389 5.18603 17.8989 8.90898 15.7478 10.8208C13.5287 9.06399 12.2723 5.19419 12.2832 5.13164C12.2832 5.13164 13.5586 1.91179 15.7097 0C17.9315 1.75678 19.1389 5.18603 19.1389 5.18603ZM21.3771 13.7687C22.6933 16.17 23.3949 18.0763 23.3949 18.0763C23.3949 18.0763 20.5694 27.7168 15.7451 32C10.7766 28.0622 8 18.1769 8 18.1769L8.06799 17.9512C8.21484 17.4916 8.79409 15.9415 9.8438 13.9862C10.5264 15.8572 12.6449 20.8311 15.7478 23.3874C19.0982 20.29 20.8468 15.3623 21.3771 13.7687Z" fill="#EB5C18"/>
</svg>
