<svg width="32" height="32" viewBox="0 0 32 32" fill="none" xmlns="http://www.w3.org/2000/svg">
<path d="M5.22904 0C9.63094 0.00702062 14.0329 0.00351031 18.4349 0C20.3339 0.0315928 22.3348 0.179026 24.0127 1.1549C25.3677 1.93067 26.2488 3.39447 26.4278 4.93198C26.6385 6.52918 26.5401 8.31592 25.5151 9.63584C24.95 10.4572 24.0549 10.9767 23.1386 11.3138C23.9846 11.6086 24.8587 11.8965 25.5608 12.4722C26.9684 13.5393 27.5827 15.3682 27.5827 17.0847C27.6775 18.8047 27.4774 20.6161 26.6033 22.129C25.7679 23.5437 24.1917 24.344 22.6332 24.6845C21.4081 24.9899 20.1338 25.039 18.8737 25.032C14.3418 25.0426 9.80998 25.025 5.27818 25.0426C5.26063 24.7126 5.23957 24.3862 5.23255 24.0597C5.22904 16.0386 5.2501 8.01752 5.22904 0ZM13.0992 4.59851C13.0992 6.33962 13.0921 8.08072 13.1027 9.82184C14.2927 9.80432 15.4861 9.85344 16.6726 9.8008C17.8802 9.75864 18.8421 8.6248 18.9087 7.45941C18.9473 6.68714 18.8421 5.81658 18.2733 5.2409C17.7749 4.74594 17.0448 4.58798 16.3637 4.59149C15.2791 4.595 14.1909 4.595 13.0992 4.59851ZM13.1027 14.4098C13.0957 16.4318 13.0921 18.4572 13.1061 20.4791C14.2435 20.4722 15.3809 20.4826 16.5182 20.4757C17.0904 20.4546 17.6801 20.4651 18.2172 20.244C20.0285 19.6472 20.534 17.0812 19.4563 15.635C18.8877 14.7679 17.81 14.3922 16.8096 14.3958C15.5739 14.4169 14.3383 14.3958 13.1027 14.4098ZM4.80078 29.283C10.7683 29.283 25.2975 29.2866 27.5827 29.2866V32H4.80078V29.283Z" fill="#067941"/>
</svg>
