<svg width="32" height="32" viewBox="0 0 32 32" fill="none" xmlns="http://www.w3.org/2000/svg">
<path d="M31.5177 19.8705C29.3808 28.442 20.6992 33.6584 12.1267 31.521C3.55778 29.3841 -1.65868 20.702 0.479177 12.1312C2.61515 3.5587 11.2967 -1.65814 19.8666 0.478775C28.4385 2.61569 33.6546 11.2987 31.5175 19.8706L31.5176 19.8705H31.5177Z" fill="#F3BA2F"/>
<path fill-rule="evenodd" clip-rule="evenodd" d="M15.9987 10.1543L11.8556 14.2974L11.8557 14.2973L9.4451 11.8866L15.9987 5.33301L22.5544 11.8886L20.1438 14.2992L15.9987 10.1543ZM7.74278 13.5886L5.33203 15.9997L7.74261 18.4099L10.1534 15.9992L7.74278 13.5886ZM11.8553 17.7022L15.9984 21.845L20.1434 17.7002L22.5553 20.1096L22.5542 20.1109L15.9984 26.6663L9.44482 20.1127L9.44141 20.1093L11.8553 17.7022ZM24.2545 13.5898L21.8438 16.0006L24.2544 18.4112L26.6651 16.0004L24.2545 13.5898Z" fill="white"/>
<path d="M18.4452 15.9987H18.4462L16.0002 13.5526L14.1922 15.36L13.9845 15.5678L13.5561 15.9962L13.5527 15.9996L13.5561 16.0031L16.0002 18.4474L18.4463 16.0013L18.4475 15.9999L18.4453 15.9987" fill="white"/>
</svg>
