<svg width="32" height="32" viewBox="0 0 32 32" fill="none" xmlns="http://www.w3.org/2000/svg">
<path d="M31.9962 16.0006C31.9962 24.8356 24.833 31.9987 15.9942 32C7.16189 32 -0.00127937 24.8356 6.86018e-07 15.9994C-0.00255942 7.16317 7.16061 0 15.9968 0C24.833 0 31.9962 7.16445 31.9962 16.0006Z" fill="#EAB300"/>
<path fill-rule="evenodd" clip-rule="evenodd" d="M22.2919 12.0812C22.0858 9.93835 20.2361 9.22024 17.8987 9.01543V6.04187H16.09V8.93607C15.6151 8.93607 15.1287 8.94503 14.6461 8.95527V6.04187H12.8374L12.8361 9.01287L12.8168 9.01325H12.8168C12.4317 9.0208 12.053 9.02823 11.6841 9.02823V9.01927L9.18927 9.01799V10.9509C9.18927 10.9509 10.5256 10.9253 10.5026 10.9496C11.2361 10.9496 11.4742 11.3746 11.5433 11.7419V15.129C11.5945 15.129 11.6598 15.1315 11.734 15.1418H11.5433L11.542 19.8869C11.51 20.1173 11.3743 20.4847 10.8623 20.486C10.8853 20.5064 9.54768 20.486 9.54768 20.486L9.18799 22.6467H11.5433C11.8089 22.6467 12.0721 22.6495 12.3324 22.6523C12.5011 22.6541 12.6687 22.6559 12.8349 22.6569L12.8361 25.6638H14.6436V22.6889C15.1389 22.6992 15.619 22.703 16.0887 22.703L16.0875 25.6638H17.8962V22.6633C20.9376 22.4892 23.0689 21.7225 23.3326 18.8654C23.5463 16.5652 22.4647 15.5373 20.7379 15.1226C21.7888 14.5901 22.4455 13.6492 22.2919 12.0812ZM19.7599 18.5096C19.7599 20.573 16.5148 20.5262 15.0346 20.5049C14.9033 20.503 14.7858 20.5013 14.6858 20.5013V16.5165C14.8108 16.5168 14.963 16.5134 15.1356 16.5095C16.657 16.4753 19.7599 16.4057 19.7599 18.5096ZM14.9884 14.6983C16.2269 14.7179 18.9177 14.7604 18.9177 12.8889C18.9188 10.9734 16.3259 11.042 15.0583 11.0756C14.9154 11.0794 14.7894 11.0827 14.6858 11.0827V14.695C14.7721 14.6949 14.8741 14.6965 14.9884 14.6983Z" fill="white"/>
<path d="M11.5459 15.0496H11.8147V15.248H11.5459V15.0496Z" fill="white"/>
</svg>
