<svg width="32" height="32" viewBox="0 0 32 32" fill="none" xmlns="http://www.w3.org/2000/svg">
<circle cx="16" cy="16" r="16" fill="#ED1968"/>
<path fill-rule="evenodd" clip-rule="evenodd" d="M22.3389 14.8269C22.3021 14.6625 22.2586 14.4997 22.2086 14.3389C22.1917 14.3522 22.1302 14.3995 22.0333 14.4742L22.0332 14.4742C21.355 14.9968 18.9411 16.8567 17.8972 17.7528C17.396 17.1002 16.8947 16.4727 16.3934 15.8452L16.3933 15.845C15.892 15.2175 15.3906 14.5899 14.8893 13.9372C15.3146 13.6025 15.7492 13.2679 16.1873 12.9304L16.1874 12.9304C17.1953 12.1541 18.2223 11.3631 19.2007 10.5232L19.2005 10.523L19.2004 10.5229C17.7968 8.7156 16.3932 6.90831 14.8893 5.00063C14.8893 4.95042 14.8643 4.92532 14.8392 4.90022C14.8141 4.87511 14.7891 4.85001 14.7891 4.7998H16.1928C18.7646 4.82385 21.2473 5.74732 23.2112 7.41049C24.1684 8.20257 24.9823 9.1536 25.6176 10.222C26.3657 11.3721 26.8455 12.6763 27.0212 14.0376C27.2899 15.6026 27.2558 17.2048 26.921 18.7569C26.634 20.0575 26.0884 21.2869 25.3168 22.3717C24.6433 23.4132 23.7953 24.3304 22.8102 25.0828C21.8507 25.9177 20.7218 26.5343 19.5015 26.8902C18.5991 25.7857 17.797 24.7816 16.9949 23.6771C16.6952 23.3336 16.4268 22.9639 16.1928 22.5726C18.1157 22.579 19.9319 21.6881 21.1057 20.1627C21.6832 19.4229 22.0937 18.5664 22.3088 17.6524C22.4953 16.8903 22.5054 15.9484 22.3389 14.8269ZM12.7844 26.9906C11.5034 26.6352 10.3089 26.02 9.27512 25.1833C8.25646 24.3974 7.37547 23.4472 6.66826 22.3717C5.91414 21.2404 5.37064 19.9817 5.06404 18.6565C4.71303 17.0692 4.71303 15.4241 5.06404 13.8368C5.36318 12.494 5.87066 11.2065 6.568 10.0212C7.58889 8.38089 9.04752 7.05923 10.7791 6.20556C11.3872 5.8778 12.025 5.60882 12.6841 5.40227C13.6867 6.60719 14.6893 7.91251 15.692 9.21784L15.692 9.21785L15.692 9.21789C15.7421 9.3183 15.8173 9.39361 15.8925 9.46892L15.8925 9.46892C15.9677 9.54423 16.0429 9.61954 16.0931 9.71995C15.0874 9.76217 14.0996 10.0009 13.1854 10.4228C12.3772 10.846 11.6614 11.4263 11.0799 12.1298C10.5077 12.8873 10.067 13.7359 9.77644 14.6401C9.50869 15.7332 9.54335 16.8788 9.8767 17.9537L14.188 14.5397C14.6894 15.1923 15.1907 15.8199 15.692 16.4475C16.1933 17.075 16.6946 17.7026 17.196 18.3553C16.7706 18.69 16.3361 19.0246 15.8979 19.3621C14.8901 20.1384 13.863 20.9294 12.8846 21.7693C13.1378 22.0952 13.3942 22.4245 13.6527 22.7564L13.6528 22.7565C14.8276 24.2649 16.0454 25.8286 17.196 27.3923C15.7135 27.5678 14.2109 27.431 12.7844 26.9906ZM19.7604 26.0155C19.0159 25.1087 18.2971 24.1813 17.6047 23.2341L17.5686 23.1919C19.2114 22.8641 20.68 21.9512 21.7025 20.6224C22.3455 19.7977 22.8025 18.8434 23.042 17.8249C23.3409 16.6007 23.3013 15.3182 22.9277 14.1148L22.6038 13.0705L21.7456 13.7462C21.3894 14.0262 20.3197 14.852 19.8335 15.2273C19.7024 15.3284 19.6138 15.3969 19.5929 15.4131C18.9853 15.885 18.478 16.2887 18.0128 16.6732C17.7491 16.3369 17.4433 15.9523 16.982 15.3749C16.5148 14.7895 16.209 14.4059 15.9453 14.0696C16.334 13.7681 16.8012 13.4078 17.1238 13.159C17.332 12.9984 17.4799 12.8843 17.5074 12.8626C18.2499 12.2914 18.978 11.7018 19.6912 11.0944L20.2366 10.6275L19.7954 10.0612C18.1541 7.94651 17.2126 6.73856 16.2832 5.55371C18.6466 5.59776 20.9225 6.4567 22.7272 7.98567C23.6205 8.72399 24.3802 9.61086 24.9731 10.6074C25.6676 11.6695 26.1135 12.875 26.2775 14.1338C26.5332 15.635 26.5021 17.1401 26.1873 18.5981C25.9217 19.7983 25.4177 20.9327 24.7054 21.9338C24.0749 22.9135 23.2798 23.7764 22.3552 24.4842C21.5925 25.1514 20.7126 25.6706 19.7604 26.0155Z" fill="white"/>
</svg>
