<svg width="32" height="32" viewBox="0 0 32 32" fill="none" xmlns="http://www.w3.org/2000/svg">
<circle cx="16" cy="16" r="16" fill="#7833F6"/>
<path fill-rule="evenodd" clip-rule="evenodd" d="M10.2671 16.0685C10.5238 16.3245 10.8715 16.4682 11.2339 16.4682C11.5964 16.4682 11.9441 16.3245 12.2007 16.0685L16.069 12.2003C16.325 11.9436 16.4687 11.5959 16.4687 11.2334C16.4687 10.871 16.325 10.5233 16.069 10.2666C15.8123 10.0105 15.4645 9.8667 15.1019 9.8667C14.7393 9.8667 14.3916 10.0105 14.1349 10.2666L10.2671 14.1344C10.011 14.3911 9.86719 14.7389 9.86719 15.1015C9.86719 15.4641 10.011 15.8118 10.2671 16.0685ZM15.6656 19.5338L19.5333 15.666C19.79 15.4099 20.1378 15.2661 20.5004 15.2661C20.863 15.2661 21.2108 15.4099 21.4675 15.666C21.7236 15.9227 21.8674 16.2705 21.8674 16.6331C21.8674 16.9957 21.7236 17.3435 21.4675 17.6002L17.5997 21.4679C17.343 21.724 16.9952 21.8679 16.6326 21.8679C16.27 21.8679 15.9222 21.724 15.6656 21.4679C15.4095 21.2113 15.2656 20.8635 15.2656 20.5009C15.2656 20.1383 15.4095 19.7905 15.6656 19.5338ZM15.3826 17.7172C15.02 17.7172 14.6722 17.5733 14.4156 17.3172C14.1595 17.0605 14.0156 16.7128 14.0156 16.3502C14.0156 15.9876 14.1595 15.6398 14.4156 15.3831L15.3826 14.416C15.6393 14.1599 15.9871 14.0161 16.3497 14.0161C16.7123 14.0161 17.0601 14.1599 17.3167 14.416C17.5729 14.6727 17.7167 15.0205 17.7167 15.3831C17.7167 15.7457 17.5729 16.0935 17.3167 16.3502L16.3497 17.3172C16.093 17.5733 15.7452 17.7172 15.3826 17.7172Z" fill="white"/>
</svg>
