<svg width="32" height="32" viewBox="0 0 32 32" fill="none" xmlns="http://www.w3.org/2000/svg">
<circle opacity="0.98" cx="16" cy="16" r="16" fill="#131A35"/>
<path d="M25.6962 12.8824V21.5997L16.0001 27.1967L6.29864 21.5997V10.4003L16.0001 4.79786L23.452 9.10243L24.5768 8.4535L16.0001 3.5L5.17383 9.75135V22.2487L16.0001 28.5L26.8265 22.2487V12.2335L25.6962 12.8824Z" fill="url(#paint0_linear_4043_348)"/>
<path d="M13.2864 21.6051H11.6641V16.1649H17.0718C17.5835 16.1592 18.0723 15.9523 18.4326 15.589C18.7929 15.2257 18.9956 14.7352 18.997 14.2234C18.9999 13.9705 18.9511 13.7195 18.8534 13.4861C18.7557 13.2527 18.6114 13.0417 18.4291 12.8662C18.2528 12.6849 18.0417 12.5412 17.8085 12.4437C17.5752 12.346 17.3246 12.2966 17.0718 12.2983H11.6641V10.6436H17.0772C18.0249 10.6492 18.9322 11.0282 19.6024 11.6983C20.2725 12.3685 20.6515 13.2758 20.6571 14.2234C20.6629 14.9489 20.4417 15.658 20.0245 16.2514C19.6404 16.8191 19.0992 17.2626 18.467 17.5276C17.841 17.7261 17.1877 17.8247 16.531 17.8196H13.2864V21.6051Z" fill="url(#paint1_linear_4043_348)"/>
<path d="M20.6184 21.47H18.7257L17.2656 18.9229C17.8433 18.8876 18.413 18.771 18.9582 18.5768L20.6184 21.47Z" fill="url(#paint2_linear_4043_348)"/>
<path d="M24.5664 11.0709L25.6858 11.6928L26.8052 11.0709V9.75684L25.6858 9.10791L24.5664 9.75684V11.0709Z" fill="url(#paint3_linear_4043_348)"/>
<defs>
<linearGradient id="paint0_linear_4043_348" x1="22.8315" y1="-3.49519" x2="-0.757473" y2="3.581" gradientUnits="userSpaceOnUse">
<stop stop-color="#C200FB"/>
<stop offset="0.489658" stop-color="#3772FF"/>
<stop offset="0.489758" stop-color="#3773FE"/>
<stop offset="1" stop-color="#5AC4BE"/>
</linearGradient>
<linearGradient id="paint1_linear_4043_348" x1="23.0422" y1="-4.23312" x2="-0.668798" y2="2.14922" gradientUnits="userSpaceOnUse">
<stop stop-color="#C200FB"/>
<stop offset="0.489658" stop-color="#3772FF"/>
<stop offset="0.489758" stop-color="#3773FE"/>
<stop offset="1" stop-color="#5AC4BE"/>
</linearGradient>
<linearGradient id="paint2_linear_4043_348" x1="21.4876" y1="-0.146793" x2="-0.157366" y2="11.4781" gradientUnits="userSpaceOnUse">
<stop stop-color="#C200FB"/>
<stop offset="0.489658" stop-color="#3772FF"/>
<stop offset="0.489758" stop-color="#3773FE"/>
<stop offset="1" stop-color="#5AC4BE"/>
</linearGradient>
<linearGradient id="paint3_linear_4043_348" x1="22.8319" y1="-3.49499" x2="-0.757068" y2="3.58131" gradientUnits="userSpaceOnUse">
<stop stop-color="#C200FB"/>
<stop offset="0.489658" stop-color="#3772FF"/>
<stop offset="0.489758" stop-color="#3773FE"/>
<stop offset="1" stop-color="#5AC4BE"/>
</linearGradient>
</defs>
</svg>
