<svg width="32" height="32" viewBox="0 0 32 32" fill="none" xmlns="http://www.w3.org/2000/svg">
<circle cx="16" cy="16" r="16" fill="url(#paint0_linear_4043_366)"/>
<mask id="mask0_4043_366" style="mask-type:luminance" maskUnits="userSpaceOnUse" x="0" y="0" width="32" height="32">
<circle cx="16" cy="16" r="16" fill="white"/>
</mask>
<g mask="url(#mask0_4043_366)">
<path d="M22.7684 0H39.8244L39.8404 33.6L5.98438 33.392L22.7684 0Z" fill="url(#paint1_linear_4043_366)"/>
</g>
<path fill-rule="evenodd" clip-rule="evenodd" d="M26.1328 8.7998L16.9259 26.9784L16.9168 26.9969L16.9122 27.0077C16.777 27.3186 16.5153 27.4635 16.1523 27.4664L16.1409 27.4665H16.125C15.7524 27.4665 15.485 27.319 15.3497 26.9983L15.3491 26.9969L15.3407 26.9799L6.13281 8.8159L10.6945 8.8159L10.7353 8.81608L10.764 8.8164L10.7823 8.81672L10.8 8.81714L10.8171 8.81765L10.8336 8.81827L10.8496 8.819L10.8651 8.81986L10.8726 8.82034L10.8874 8.82139L10.9018 8.82259L10.9088 8.82325L10.9226 8.82467L10.9293 8.82544L10.9426 8.82711L10.9555 8.82896L10.9682 8.83098L10.9806 8.83319L10.9929 8.83559C11.0333 8.84395 11.0707 8.85568 11.1102 8.87207C11.2088 8.91298 11.2913 8.97967 11.351 9.06938C11.3834 9.11806 11.4054 9.16628 11.4224 9.21925L11.4247 9.22661L16.1247 18.457L20.8141 9.23242L20.8147 9.23066L20.8163 9.22473C20.863 9.05563 20.9851 8.93194 21.1459 8.86595L21.1533 8.86295C21.2676 8.81767 21.4 8.7998 21.564 8.7998H26.1328ZM7.48633 9.65183L16.0782 26.6007L16.0926 26.6297L16.1011 26.6301L16.1121 26.6304L16.1241 26.6305H16.14L16.152 26.6304L16.163 26.6301L16.1714 26.6297L16.185 26.6024L24.778 9.63574L21.5554 9.63577L21.5405 9.63595L21.5392 9.63597L16.1244 20.2875L10.7088 9.65188L7.48633 9.65183Z" fill="white"/>
<path d="M18.7502 8.7998C18.3953 8.7998 18.2824 8.84814 18.1211 9.17036L14.2339 16.7909L10.3467 9.17036C10.2661 8.88036 10.0725 8.96092 9.7177 8.96092H6.42729C6.266 8.96092 6.10471 9.13814 6.13696 9.25092L13.5888 23.8637C13.7017 24.1215 13.9114 24.2665 14.2339 24.2665H14.2501C14.5727 24.2665 14.7985 24.1376 14.8953 23.8637L22.3632 9.17036C22.4116 9.05758 22.4116 8.97703 22.3632 8.91258C22.3148 8.84814 22.2019 8.7998 22.0729 8.7998H18.7502Z" fill="white"/>
<defs>
<linearGradient id="paint0_linear_4043_366" x1="-11.056" y1="6.688" x2="-11.056" y2="28.8" gradientUnits="userSpaceOnUse">
<stop stop-color="#5B62FE"/>
<stop offset="1" stop-color="#3831AB"/>
</linearGradient>
<linearGradient id="paint1_linear_4043_366" x1="-2336.18" y1="4.92" x2="-2336.18" y2="27.6672" gradientUnits="userSpaceOnUse">
<stop stop-color="#1F1B55" stop-opacity="0.98"/>
<stop offset="1" stop-color="#493ED1"/>
</linearGradient>
</defs>
</svg>
